simulate all controllers
version=1
nRows=4
nColumns=195
inDegrees=yes
endheader
time	/jointset/ground_platform/platform_rx/value	/jointset/ground_platform/platform_rx/speed	/jointset/ground_platform/platform_ry/value	/jointset/ground_platform/platform_ry/speed	/jointset/ground_platform/platform_rz/value	/jointset/ground_platform/platform_rz/speed	/jointset/ground_platform/platform_ty/value	/jointset/ground_platform/platform_ty/speed	/jointset/ground_pelvis/pelvis_tilt/value	/jointset/ground_pelvis/pelvis_tilt/speed	/jointset/ground_pelvis/pelvis_list/value	/jointset/ground_pelvis/pelvis_list/speed	/jointset/ground_pelvis/pelvis_rotation/value	/jointset/ground_pelvis/pelvis_rotation/speed	/jointset/ground_pelvis/pelvis_tx/value	/jointset/ground_pelvis/pelvis_tx/speed	/jointset/ground_pelvis/pelvis_ty/value	/jointset/ground_pelvis/pelvis_ty/speed	/jointset/ground_pelvis/pelvis_tz/value	/jointset/ground_pelvis/pelvis_tz/speed	/jointset/hip_r/hip_flexion_r/value	/jointset/hip_r/hip_flexion_r/speed	/jointset/hip_r/hip_adduction_r/value	/jointset/hip_r/hip_adduction_r/speed	/jointset/hip_r/hip_rotation_r/value	/jointset/hip_r/hip_rotation_r/speed	/jointset/knee_r/knee_angle_r/value	/jointset/knee_r/knee_angle_r/speed	/jointset/ankle_r/ankle_angle_r/value	/jointset/ankle_r/ankle_angle_r/speed	/jointset/subtalar_r/subtalar_angle_r/value	/jointset/subtalar_r/subtalar_angle_r/speed	/jointset/mtp_r/mtp_angle_r/value	/jointset/mtp_r/mtp_angle_r/speed	/jointset/hip_l/hip_flexion_l/value	/jointset/hip_l/hip_flexion_l/speed	/jointset/hip_l/hip_adduction_l/value	/jointset/hip_l/hip_adduction_l/speed	/jointset/hip_l/hip_rotation_l/value	/jointset/hip_l/hip_rotation_l/speed	/jointset/knee_l/knee_angle_l/value	/jointset/knee_l/knee_angle_l/speed	/jointset/ankle_l/ankle_angle_l/value	/jointset/ankle_l/ankle_angle_l/speed	/jointset/subtalar_l/subtalar_angle_l/value	/jointset/subtalar_l/subtalar_angle_l/speed	/jointset/mtp_l/mtp_angle_l/value	/jointset/mtp_l/mtp_angle_l/speed	/jointset/back/lumbar_extension/value	/jointset/back/lumbar_extension/speed	/jointset/back/lumbar_bending/value	/jointset/back/lumbar_bending/speed	/jointset/back/lumbar_rotation/value	/jointset/back/lumbar_rotation/speed	/forceset/glut_med1_r/activation	/forceset/glut_med1_r/fiber_length	/forceset/glut_med2_r/activation	/forceset/glut_med2_r/fiber_length	/forceset/glut_med3_r/activation	/forceset/glut_med3_r/fiber_length	/forceset/bifemlh_r/activation	/forceset/bifemlh_r/fiber_length	/forceset/bifemsh_r/activation	/forceset/bifemsh_r/fiber_length	/forceset/sar_r/activation	/forceset/sar_r/fiber_length	/forceset/add_mag2_r/activation	/forceset/add_mag2_r/fiber_length	/forceset/tfl_r/activation	/forceset/tfl_r/fiber_length	/forceset/pect_r/activation	/forceset/pect_r/fiber_length	/forceset/grac_r/activation	/forceset/grac_r/fiber_length	/forceset/glut_max1_r/activation	/forceset/glut_max1_r/fiber_length	/forceset/glut_max2_r/activation	/forceset/glut_max2_r/fiber_length	/forceset/glut_max3_r/activation	/forceset/glut_max3_r/fiber_length	/forceset/iliacus_r/activation	/forceset/iliacus_r/fiber_length	/forceset/psoas_r/activation	/forceset/psoas_r/fiber_length	/forceset/quad_fem_r/activation	/forceset/quad_fem_r/fiber_length	/forceset/gem_r/activation	/forceset/gem_r/fiber_length	/forceset/peri_r/activation	/forceset/peri_r/fiber_length	/forceset/rect_fem_r/activation	/forceset/rect_fem_r/fiber_length	/forceset/vas_int_r/activation	/forceset/vas_int_r/fiber_length	/forceset/med_gas_r/activation	/forceset/med_gas_r/fiber_length	/forceset/lat_gas_r/activation	/forceset/lat_gas_r/fiber_length	/forceset/soleus_r/activation	/forceset/soleus_r/fiber_length	/forceset/tib_post_r/activation	/forceset/tib_post_r/fiber_length	/forceset/flex_dig_r/activation	/forceset/flex_dig_r/fiber_length	/forceset/flex_hal_r/activation	/forceset/flex_hal_r/fiber_length	/forceset/tib_ant_r/activation	/forceset/tib_ant_r/fiber_length	/forceset/per_brev_r/activation	/forceset/per_brev_r/fiber_length	/forceset/per_long_r/activation	/forceset/per_long_r/fiber_length	/forceset/per_tert_r/activation	/forceset/per_tert_r/fiber_length	/forceset/ext_dig_r/activation	/forceset/ext_dig_r/fiber_length	/forceset/ext_hal_r/activation	/forceset/ext_hal_r/fiber_length	/forceset/glut_med1_l/activation	/forceset/glut_med1_l/fiber_length	/forceset/glut_med2_l/activation	/forceset/glut_med2_l/fiber_length	/forceset/glut_med3_l/activation	/forceset/glut_med3_l/fiber_length	/forceset/bifemlh_l/activation	/forceset/bifemlh_l/fiber_length	/forceset/bifemsh_l/activation	/forceset/bifemsh_l/fiber_length	/forceset/sar_l/activation	/forceset/sar_l/fiber_length	/forceset/add_mag2_l/activation	/forceset/add_mag2_l/fiber_length	/forceset/tfl_l/activation	/forceset/tfl_l/fiber_length	/forceset/pect_l/activation	/forceset/pect_l/fiber_length	/forceset/grac_l/activation	/forceset/grac_l/fiber_length	/forceset/glut_max1_l/activation	/forceset/glut_max1_l/fiber_length	/forceset/glut_max2_l/activation	/forceset/glut_max2_l/fiber_length	/forceset/glut_max3_l/activation	/forceset/glut_max3_l/fiber_length	/forceset/iliacus_l/activation	/forceset/iliacus_l/fiber_length	/forceset/psoas_l/activation	/forceset/psoas_l/fiber_length	/forceset/quad_fem_l/activation	/forceset/quad_fem_l/fiber_length	/forceset/gem_l/activation	/forceset/gem_l/fiber_length	/forceset/peri_l/activation	/forceset/peri_l/fiber_length	/forceset/rect_fem_l/activation	/forceset/rect_fem_l/fiber_length	/forceset/vas_int_l/activation	/forceset/vas_int_l/fiber_length	/forceset/med_gas_l/activation	/forceset/med_gas_l/fiber_length	/forceset/lat_gas_l/activation	/forceset/lat_gas_l/fiber_length	/forceset/soleus_l/activation	/forceset/soleus_l/fiber_length	/forceset/tib_post_l/activation	/forceset/tib_post_l/fiber_length	/forceset/flex_dig_l/activation	/forceset/flex_dig_l/fiber_length	/forceset/flex_hal_l/activation	/forceset/flex_hal_l/fiber_length	/forceset/tib_ant_l/activation	/forceset/tib_ant_l/fiber_length	/forceset/per_brev_l/activation	/forceset/per_brev_l/fiber_length	/forceset/per_long_l/activation	/forceset/per_long_l/fiber_length	/forceset/per_tert_l/activation	/forceset/per_tert_l/fiber_length	/forceset/ext_dig_l/activation	/forceset/ext_dig_l/fiber_length	/forceset/ext_hal_l/activation	/forceset/ext_hal_l/fiber_length	/forceset/ercspn_r/activation	/forceset/ercspn_r/fiber_length	/forceset/ercspn_l/activation	/forceset/ercspn_l/fiber_length	/forceset/intobl_r/activation	/forceset/intobl_r/fiber_length	/forceset/intobl_l/activation	/forceset/intobl_l/fiber_length	/forceset/extobl_r/activation	/forceset/extobl_r/fiber_length	/forceset/extobl_l/activation	/forceset/extobl_l/fiber_length
      0.25324548	     20.00000000	      0.00000000	     -0.00000000	     -0.00000000	     -0.00000000	     -0.00000000	      0.25000000	      0.00000000	     -9.53120352	     10.31970508	      0.10920679	      0.91724041	      0.78328902	      2.89399314	      0.05080219	     -0.00001037	      1.36072045	     -2.46260547	     -0.00160242	     -0.00823530	     15.77586563	    -13.96989757	     -1.63714313	     -4.11551984	      0.42284595	    -23.72892370	    -20.15950684	     -9.86065757	     16.00602151	     29.44343219	      0.71089638	     -3.82082231	      0.00000000	     -0.00000000	    -19.99999998	      0.00000000	     10.00000028	      0.00000000	      4.99999985	      0.00000000	   -119.99999986	     -0.00000000	     11.49999977	     -0.00000000	     -0.03000064	      0.00000000	      0.00000000	      0.00000000	     -2.92209619	    -12.71970213	     -0.11841965	     -0.44782687	     -0.07638555	      1.51572439	      0.01234529	      0.04547905	     -0.00716325	      0.08271494	     -0.00716325	      0.06561734	     -0.00714344	      0.09957316	     -0.00539503	      0.16254640	     -0.00264099	      0.45251015	     -0.00712207	      0.08029544	      0.01498421	      0.09977908	      0.00694682	      0.06536563	     -0.00664290	      0.30943542	     -0.00716325	      0.08685938	     -0.00716325	      0.09665392	     -0.00716325	      0.11187805	      0.01164753	      0.09620415	      0.01113269	      0.09046759	     -0.00716325	      0.04750621	     -0.00702580	      0.02559018	     -0.00712350	      0.02372058	      0.01515240	      0.10348368	      0.00659962	      0.08198568	      0.01857184	      0.09615538	      0.02675863	      0.06876864	      0.02349656	      0.08809720	      0.21778439	      0.03282613	      0.21508986	      0.02874456	      0.21626193	      0.03772578	      0.20030698	      0.06599843	      0.60055601	      0.04741789	      0.60388583	      0.04541056	      0.60004651	      0.07079986	      0.60003024	      0.07913724	      0.20032975	      0.08935861	     -0.00716325	      0.04646954	     -0.00716325	      0.07924345	     -0.00716325	      0.06066849	     -0.00716325	      0.02207317	     -0.00716325	      0.12238178	     -0.00716325	      0.45556126	     -0.00716325	      0.05828642	     -0.00716325	      0.13391495	     -0.00716325	      0.07307389	     -0.00716325	      0.24301553	     -0.00716325	      0.06638073	     -0.00716325	      0.06554424	     -0.00716325	      0.05770037	     -0.00716325	      0.11895704	     -0.00716325	      0.11276383	     -0.00716325	      0.04385542	     -0.00716325	      0.02477863	     -0.00716325	      0.02332534	     -0.00716325	      0.18252173	     -0.00716325	      0.13945923	     -0.00716325	      0.06773678	     -0.00716325	      0.04189861	     -0.00716325	      0.08593352	     -0.00716325	      0.03561945	     -0.00716325	      0.03420507	     -0.00716325	      0.04259656	     -0.00716325	      0.07211217	     -0.00716325	      0.05030440	     -0.00716325	      0.05155711	     -0.00716325	      0.07464108	     -0.00716325	      0.08888265	     -0.00716325	      0.09641102	      0.00658560	      0.12182444	      0.00577390	      0.12164304	     -0.00716325	      0.09628044	     -0.00711732	      0.09599749	     -0.00716325	      0.13017366	     -0.00716325	      0.12985382
      0.25551313	     20.00000000	      0.00000000	     -0.00000000	     -0.00000000	     -0.00000000	     -0.00000000	      0.25000000	      0.00000000	     -9.50777982	     10.33908296	      0.11128267	      0.91345200	      0.78987147	      2.91137333	      0.05080216	     -0.00001129	      1.35511097	     -2.48479701	     -0.00162120	     -0.00833012	     15.74412380	    -14.02524881	     -1.64650844	     -4.14404885	      0.36897932	    -23.77877946	    -20.18180202	     -9.80296869	     16.07262826	     29.29280594	      0.70250557	     -3.58063638	      0.00000000	     -0.00000000	    -19.99999998	      0.00000000	     10.00000028	      0.00000000	      4.99999985	      0.00000000	   -119.99999986	     -0.00000000	     11.49999977	     -0.00000000	     -0.03000064	      0.00000000	      0.00000000	      0.00000000	     -2.95096682	    -12.74294503	     -0.11941149	     -0.42674019	     -0.07296042	      1.50525234	      0.01234080	      0.04549625	     -0.00745521	      0.08270200	     -0.00745521	      0.06558425	     -0.00743540	      0.09952198	     -0.00568698	      0.16253556	     -0.00289251	      0.45252931	     -0.00741403	      0.08028766	      0.01494912	      0.09981352	      0.00686630	      0.06538488	     -0.00693486	      0.30942209	     -0.00745521	      0.08682223	     -0.00745521	      0.09660855	     -0.00745521	      0.11182553	      0.01161986	      0.09623306	      0.01110117	      0.09049530	     -0.00745521	      0.04746432	     -0.00731776	      0.02556061	     -0.00741546	      0.02369163	      0.01512512	      0.10352876	      0.00648982	      0.08200360	      0.01851336	      0.09619393	      0.02667479	      0.06880973	      0.02344841	      0.08813930	      0.21772623	      0.03283960	      0.21503107	      0.02875525	      0.21622705	      0.03774239	      0.20029336	      0.06595114	      0.60051356	      0.04741861	      0.60385347	      0.04541472	      0.60004296	      0.07076818	      0.60002793	      0.07909114	      0.20031512	      0.08931132	     -0.00745521	      0.04646954	     -0.00745521	      0.07924345	     -0.00745521	      0.06066849	     -0.00745521	      0.02207317	     -0.00745521	      0.12238178	     -0.00745521	      0.45556126	     -0.00745521	      0.05828642	     -0.00745521	      0.13391495	     -0.00745521	      0.07307389	     -0.00745521	      0.24301553	     -0.00745521	      0.06638073	     -0.00745521	      0.06554424	     -0.00745521	      0.05770037	     -0.00745521	      0.11895704	     -0.00745521	      0.11276383	     -0.00745521	      0.04385542	     -0.00745521	      0.02477863	     -0.00745521	      0.02332542	     -0.00745521	      0.18252221	     -0.00745521	      0.13945923	     -0.00745521	      0.06773685	     -0.00745521	      0.04189892	     -0.00745521	      0.08593352	     -0.00745521	      0.03561948	     -0.00745521	      0.03420605	     -0.00745521	      0.04259771	     -0.00745521	      0.07211217	     -0.00745521	      0.05030442	     -0.00745521	      0.05155729	     -0.00745521	      0.07464108	     -0.00745521	      0.08888273	     -0.00745521	      0.09641104	      0.00648429	      0.12184519	      0.00567143	      0.12166364	     -0.00745521	      0.09625787	     -0.00740927	      0.09596698	     -0.00745521	      0.13014142	     -0.00745521	      0.12982277
      0.25650868	     20.00000000	      0.00000000	     -0.00000000	     -0.00000000	     -0.00000000	     -0.00000000	      0.25000000	      0.00000000	     -9.49748277	     10.34709107	      0.11219109	      0.91149044	      0.79277353	      2.91867494	      0.05080215	     -0.00001072	      1.35263239	     -2.49454050	     -0.00162951	     -0.00837096	     15.73014914	    -14.04902715	     -1.65063986	     -4.15563177	      0.34529679	    -23.79778900	    -20.19154869	     -9.77758928	     16.10175172	     29.21404440	      0.69898957	     -3.48471820	      0.00000000	     -0.00000000	    -19.99999998	      0.00000000	     10.00000028	      0.00000000	      4.99999985	      0.00000000	   -119.99999986	     -0.00000000	     11.49999977	     -0.00000000	     -0.03000064	      0.00000000	      0.00000000	      0.00000000	     -2.96365771	    -12.75227910	     -0.11983158	     -0.41717391	     -0.07146407	      1.50085634	      0.01233856	      0.04550380	     -0.00758338	      0.08269628	     -0.00758338	      0.06556968	     -0.00756357	      0.09949948	     -0.00581516	      0.16253082	     -0.00300287	      0.45253775	     -0.00754221	      0.08028425	      0.01493412	      0.09982860	      0.00683123	      0.06539336	     -0.00706303	      0.30941627	     -0.00758338	      0.08680587	     -0.00758338	      0.09658858	     -0.00758338	      0.11180243	      0.01160832	      0.09624578	      0.01108796	      0.09050746	     -0.00758338	      0.04744591	     -0.00744593	      0.02554761	     -0.00754364	      0.02367888	      0.01511331	      0.10354853	      0.00644128	      0.08201143	      0.01848717	      0.09621082	      0.02663707	      0.06882772	      0.02342623	      0.08815775	      0.21769732	      0.03284552	      0.21500235	      0.02875996	      0.21620920	      0.03774969	      0.20028758	      0.06593038	      0.60049596	      0.04741892	      0.60384377	      0.04541655	      0.60004149	      0.07075428	      0.60002697	      0.07907090	      0.20030891	      0.08929055	     -0.00758338	      0.04646954	     -0.00758338	      0.07924345	     -0.00758338	      0.06066849	     -0.00758338	      0.02207317	     -0.00758338	      0.12238178	     -0.00758338	      0.45556126	     -0.00758338	      0.05828642	     -0.00758338	      0.13391495	     -0.00758338	      0.07307389	     -0.00758338	      0.24301553	     -0.00758338	      0.06638073	     -0.00758338	      0.06554424	     -0.00758338	      0.05770037	     -0.00758338	      0.11895704	     -0.00758338	      0.11276383	     -0.00758338	      0.04385542	     -0.00758338	      0.02477863	     -0.00758338	      0.02332545	     -0.00758338	      0.18252170	     -0.00758338	      0.13945923	     -0.00758338	      0.06773688	     -0.00758338	      0.04189905	     -0.00758338	      0.08593352	     -0.00758338	      0.03561949	     -0.00758338	      0.03420647	     -0.00758338	      0.04259820	     -0.00758338	      0.07211217	     -0.00758338	      0.05030443	     -0.00758338	      0.05155736	     -0.00758338	      0.07464108	     -0.00758338	      0.08888276	     -0.00758338	      0.09641106	      0.00643982	      0.12185430	      0.00562661	      0.12167270	     -0.00758338	      0.09624791	     -0.00753745	      0.09595359	     -0.00758338	      0.13012723	     -0.00758338	      0.12980913
      0.25907138	     20.00000000	      0.00000000	     -0.00000000	     -0.00000000	     -0.00000000	     -0.00000000	      0.25000000	      0.00000000	     -9.47094126	     10.36619492	      0.11451997	      0.90594023	      0.80027644	      2.93658716	      0.05080213	     -0.00000617	      1.34620747	     -2.51962583	     -0.00165110	     -0.00847237	     15.69406879	    -14.10855385	     -1.66132386	     -4.18136917	      0.28425895	    -23.83445290	    -20.21652287	     -9.71322523	     16.17635715	     29.01410672	      0.69030912	     -3.30968666	      0.00000000	     -0.00000000	    -19.99999998	      0.00000000	     10.00000028	      0.00000000	      4.99999985	      0.00000000	   -119.99999986	     -0.00000000	     11.49999977	     -0.00000000	     -0.03000064	      0.00000000	      0.00000000	      0.00000000	     -2.99636631	    -12.77368444	     -0.12086879	     -0.39228278	     -0.06763185	      1.49000525	      0.01233194	      0.04552322	     -0.00791333	      0.08268144	     -0.00791333	      0.06553203	     -0.00789352	      0.09944154	     -0.00614511	      0.16251868	     -0.00328681	      0.45255955	     -0.00787216	      0.08027550	      0.01489663	      0.09986734	      0.00674168	      0.06541526	     -0.00739298	      0.30940138	     -0.00791333	      0.08676361	     -0.00791333	      0.09653704	     -0.00791333	      0.11174282	      0.01158022	      0.09627855	      0.01105562	      0.09053880	     -0.00791333	      0.04739848	     -0.00777588	      0.02551409	     -0.00787359	      0.02364593	      0.01508338	      0.10359936	      0.00631536	      0.08203152	      0.01841812	      0.09625418	      0.02653727	      0.06887387	      0.02336613	      0.08820512	      0.21761528	      0.03286074	      0.21492195	      0.02877214	      0.21615721	      0.03776850	      0.20027320	      0.06587695	      0.60045386	      0.04741967	      0.60382753	      0.04542128	      0.60003793	      0.07071862	      0.60002466	      0.07901882	      0.20029346	      0.08923710	     -0.00791333	      0.04646954	     -0.00791333	      0.07924345	     -0.00791333	      0.06066849	     -0.00791333	      0.02207317	     -0.00791333	      0.12238178	     -0.00791333	      0.45556126	     -0.00791333	      0.05828642	     -0.00791333	      0.13391495	     -0.00791333	      0.07307389	     -0.00791333	      0.24301553	     -0.00791333	      0.06638073	     -0.00791333	      0.06554424	     -0.00791333	      0.05770037	     -0.00791333	      0.11895704	     -0.00791333	      0.11276383	     -0.00791333	      0.04385542	     -0.00791333	      0.02477863	     -0.00791333	      0.02332552	     -0.00791333	      0.18252317	     -0.00791333	      0.13945923	     -0.00791333	      0.06773695	     -0.00791333	      0.04189938	     -0.00791333	      0.08593352	     -0.00791333	      0.03561951	     -0.00791333	      0.03420753	     -0.00791333	      0.04259943	     -0.00791333	      0.07211217	     -0.00791333	      0.05030445	     -0.00791333	      0.05155754	     -0.00791333	      0.07464108	     -0.00791333	      0.08888284	     -0.00791333	      0.09641108	      0.00632530	      0.12187775	      0.00551169	      0.12169608	     -0.00791333	      0.09622216	     -0.00786740	      0.09591917	     -0.00791333	      0.13009061	     -0.00791333	      0.12977399
